<svg id="Logo" xmlns="http://www.w3.org/2000/svg" xmlns:xlink="http://www.w3.org/1999/xlink" width="54" height="87" viewBox="0 0 54 87">
  <defs>
    <linearGradient id="linear-gradient" x1="0.5" x2="0.5" y2="1" gradientUnits="objectBoundingBox">
      <stop offset="0" stop-color="#5c6fa3"/>
      <stop offset="1" stop-color="#263560"/>
    </linearGradient>
  </defs>
  <path id="Rectangle" d="M2.824,0A2.822,2.822,0,0,0,0,2.82V54.836a2.818,2.818,0,0,0,.657,1.808L25.2,85.988a2.825,2.825,0,0,0,4.384-.061L53.393,55.789A2.818,2.818,0,0,0,54,54.042V2.82A2.822,2.822,0,0,0,51.176,0Z" fill="url(#linear-gradient)"/>
  <g id="Schermafbeelding_2020-07-07_om_174703-removebg" transform="translate(11 6)">
    <path id="Shape" d="M15.729,41.909c-.061-.053-.291-.229-.5-.389s-.428-.323-.473-.356-.136-.1-.205-.156-.168-.122-.226-.164c-.086-.053-.365-.265-1.047-.786-.263-.2-.337-.258-.431-.319s-.723-.533-1.047-.787c-.045-.037-.152-.114-.234-.175-.238-.172-.624-.459-.907-.676-.348-.266-.4-.3-.571-.43-.2-.143-.619-.458-1.022-.766-.177-.135-.386-.291-.468-.347s-.3-.218-.485-.361c-.582-.446-.841-.639-.993-.745-.083-.058-.292-.212-.468-.348-.4-.307-.821-.622-1.022-.765-.082-.062-.189-.139-.234-.176-.09-.069-.825-.618-.973-.724-.185-.136-.677-.509-1.076-.811-.221-.168-.46-.348-.529-.4s-.189-.135-.259-.184-.439-.324-.813-.607-.911-.684-1.19-.893c-.489-.36-.513-.384-.538-.553C0,29.9,0,23.135,0,14.965.016.162.016.1.1.043A.3.3,0,0,1,.324.006C.4.019,7.54.031,16.181.031H31.894l.054.131C32,.276,32.006,2.8,32,15.19l0,14.893-.123.127a.926.926,0,0,1-.247.193.531.531,0,0,0-.156.119.107.107,0,0,1-.074.058.989.989,0,0,0-.255.176c-.119.1-.266.213-.332.258s-.148.1-.181.119-.1.077-.152.122a2.648,2.648,0,0,1-.242.184c-.217.148-.287.2-.591.438a2.913,2.913,0,0,1-.517.381.489.489,0,0,0-.123.095,2.243,2.243,0,0,1-.332.258,2.531,2.531,0,0,0-.349.254c-.218.176-.657.5-.678.5a.6.6,0,0,0-.119.094,2.243,2.243,0,0,1-.332.258,3.946,3.946,0,0,0-.493.364c-.447.348-.5.389-.529.389a.426.426,0,0,0-.119.095c-.058.049-.168.135-.251.193a6.532,6.532,0,0,0-.537.4c-.139.106-.332.246-.431.315a2.042,2.042,0,0,0-.205.148,6.569,6.569,0,0,1-.537.4c-.049.033-.185.135-.3.229s-.3.229-.415.307a1.361,1.361,0,0,0-.221.172,2.426,2.426,0,0,1-.41.3c-.037.024-.095.066-.128.09-.156.135-.534.418-.718.549a1.418,1.418,0,0,0-.234.184,1.591,1.591,0,0,1-.266.205,5.752,5.752,0,0,0-.567.418c-.135.106-.329.25-.431.315a1.89,1.89,0,0,0-.246.189,4.961,4.961,0,0,1-.6.446,2.062,2.062,0,0,0-.263.2c-.407.319-.817.634-1.067.806-.131.09-.452.332-.718.533s-.591.45-.731.545a2.654,2.654,0,0,0-.275.213,1.2,1.2,0,0,1-.205.159.605.605,0,0,1-.328.123A.362.362,0,0,1,15.729,41.909Z" fill="#fff"/>
  </g>
  <path id="Vanthi" d="M20.412,7.429V4.211h-.8V2.753h.8V1.283l1.741-.252V2.753H23.5l-.1,1.458H22.153V7.178c0,.251.145.339.363.339a2.311,2.311,0,0,0,.725-.113l.205,1.371A3.979,3.979,0,0,1,22.19,9C21.065,9,20.412,8.56,20.412,7.429ZM7.316,7.14c0-1.232.544-1.722,1.753-1.722h1.27V4.953c0-.629-.109-.842-1.04-.842a7.916,7.916,0,0,0-1.6.176l-.23-1.358a8.011,8.011,0,0,1,2.117-.3c2.043,0,2.49.641,2.49,2.338V8.874H10.653l-.121-.39A3.509,3.509,0,0,1,8.852,9C7.763,9,7.316,8.183,7.316,7.14ZM31.259,8.874V2.753H33V8.874Zm-3.253,0V4.827c0-.276-.122-.44-.424-.44a3.6,3.6,0,0,0-1.269.453V8.874H24.572V.251L26.289,0V3.192a5.018,5.018,0,0,1,2.1-.565c1,0,1.354.779,1.354,1.961V8.874Zm-11.04,0V4.827c0-.276-.122-.44-.424-.44a3.326,3.326,0,0,0-1.269.44V8.874H13.531V2.753h1.293l.182.464a5.762,5.762,0,0,1,2.346-.59c1,0,1.354.779,1.354,1.961V8.874Zm-14.693,0L0,.5H1.862L3.568,7.165,5.272.5H7.134L4.861,8.874ZM31.259,1.986V.063H33V1.986Z" transform="translate(10 50)" fill="#fff"/>
  <path id="GCV" d="M7.209,4.83A2.305,2.305,0,0,1,6.4,4.339a2.262,2.262,0,0,1-.537-.784,2.685,2.685,0,0,1-.2-1.055,2.76,2.76,0,0,1,.192-1.058A2.2,2.2,0,0,1,6.39.658,2.335,2.335,0,0,1,7.2.169,2.976,2.976,0,0,1,8.219,0a2.864,2.864,0,0,1,.863.127A2.379,2.379,0,0,1,9.8.489a2.032,2.032,0,0,1,.525.572,1.978,1.978,0,0,1,.27.761l-.849.072A1.352,1.352,0,0,0,9.222,1,1.692,1.692,0,0,0,8.192.69,1.863,1.863,0,0,0,7.5.814a1.506,1.506,0,0,0-.537.358,1.6,1.6,0,0,0-.349.57,2.171,2.171,0,0,0-.123.759,2.177,2.177,0,0,0,.13.781,1.566,1.566,0,0,0,.364.566,1.546,1.546,0,0,0,.541.346A1.889,1.889,0,0,0,8.2,4.31a1.724,1.724,0,0,0,1.021-.3,1.32,1.32,0,0,0,.527-.863l.856.072a2.062,2.062,0,0,1-.284.745,2.085,2.085,0,0,1-.52.56,2.294,2.294,0,0,1-.713.352A3.124,3.124,0,0,1,7.209,4.83Zm-5.675,0A2.248,2.248,0,0,1,.2,3.555,2.685,2.685,0,0,1,0,2.5,2.76,2.76,0,0,1,.192,1.442,2.218,2.218,0,0,1,.723.658a2.3,2.3,0,0,1,.8-.489A2.956,2.956,0,0,1,2.541,0a2.963,2.963,0,0,1,.833.114,2.3,2.3,0,0,1,.7.332A2.056,2.056,0,0,1,4.6.98a2.081,2.081,0,0,1,.3.719l-.842.13A1.31,1.31,0,0,0,3.548.993,1.644,1.644,0,0,0,2.534.69a2.025,2.025,0,0,0-.7.113,1.453,1.453,0,0,0-.537.342,1.545,1.545,0,0,0-.349.566A2.309,2.309,0,0,0,.829,2.5a2.237,2.237,0,0,0,.127.788,1.561,1.561,0,0,0,.353.566,1.434,1.434,0,0,0,.537.342,1.981,1.981,0,0,0,.688.114,2.013,2.013,0,0,0,.554-.075,1.4,1.4,0,0,0,.459-.225,1.245,1.245,0,0,0,.332-.384,1.6,1.6,0,0,0,.182-.56H2.548V2.383h2.4v.254a2.71,2.71,0,0,1-.168.979,2.054,2.054,0,0,1-.48.746,2.126,2.126,0,0,1-.756.472A2.827,2.827,0,0,1,2.548,5,2.931,2.931,0,0,1,1.535,4.83Zm11.623.1L11.007.065h.89l1.6,3.659L15.1.065H16l-2.157,4.87Z" transform="translate(19 63)" fill="#fff"/>
</svg>
