<svg xmlns="http://www.w3.org/2000/svg" width="10.891" height="10.432" viewBox="0 0 10.891 10.432">
  <g id="phone-call" transform="translate(-0.111 0)">
    <path id="Shape" d="M8.849,10.426A9.871,9.871,0,0,1,4.54,8.894a9.753,9.753,0,0,1-3-3A9.919,9.919,0,0,1,.005,1.556,1.429,1.429,0,0,1,1.327,0l.1,0H2.849A1.429,1.429,0,0,1,4.277,1.232a5.619,5.619,0,0,0,.307,1.231A1.428,1.428,0,0,1,4.327,3.9l-.067.073-.341.34.036.057a7.13,7.13,0,0,0,1.912,1.97l.176.119.057.036.343-.342a1.427,1.427,0,0,1,1.319-.378l.094.025.093.031a5.629,5.629,0,0,0,1.237.308,1.425,1.425,0,0,1,1.228,1.352V9a1.425,1.425,0,0,1-1.431,1.433Q8.916,10.432,8.849,10.426ZM8.06,3.941l-.015-.058-.023-.1a.476.476,0,0,1,.927-.213c.01.041.02.084.028.125a.467.467,0,0,1-.478.568A.446.446,0,0,1,8.06,3.941ZM9.952,3.9l-.011-.06-.016-.129a.475.475,0,0,1,.942-.128l.019.143a.463.463,0,0,1-.48.529A.449.449,0,0,1,9.952,3.9Z" transform="translate(0.112 0)" fill="#399d3f"/>
  </g>
</svg>
